# xmcd
#
# Track frame offsets:
#	150
#	14941
#	28608
#	42985
#	57624
#	71517
#	83194
#	96752
#	110389
#	123264
#	136492
#	150396
#	163704
#	177275
#	190466
#	204596
#	218216
#	232012
#	244573
#	257436
#	271385
#	285219
#	299373
#	312433
#
# Disc length: 4342 seconds
#
# Revision: 0
# Processed by: cddbd v1.5.2PL0 Copyright (c) Steve Scherf et al.
# Submitted via: dBpowerAMP V4.0
#
DISCID=6210f418
DTITLE=Various Artist - Complete Recorded Works (Vol 2)
DYEAR=1995
DGENRE=Blues
TTITLE0=Maggie Jones - Cheatin' On Me
TTITLE1=Maggie Jones - Mamma (Won't You Come and Ma-Ma Me)
TTITLE2=Maggie Jones - He's Just a Horn-Tootin' Fool
TTITLE3=Maggie Jones - Go Get 'Em Carolyn
TTITLE4=Maggie Jones - Dallas Blues
TTITLE5=Maggie Jones - South Street Blues
TTITLE6=Maggie Jones - Never Drive a Beggar From Your Door
TTITLE7=Maggie Jones - I'm a Back Bitin' Mama
TTITLE8=Maggie Jones - Single Woman's Blues
TTITLE9=Maggie Jones - Never Tell a Woman Friend
TTITLE10=Maggie Jones - The Man I Love is Oh So Good
TTITLE11=Maggie Jones - I'm Leaving You
TTITLE12=Maggie Jones - I'm a Real Kind Mama
TTITLE13=Maggie Jones - You Ain't Gonna Feed in my Pasture Now
TTITLE14=Maggie Jones - Mama Stayed Out All Night Long
TTITLE15=Maggie Jones - He Belongs To Me
TTITLE16=Gladys Bentley - Ground Hog Blues
TTITLE17=Gladys Bentley - Worried Blues
TTITLE18=Gladys Bentley - How Long-How Long Blues
TTITLE19=Gladys Bentley - Moanful Wailin' Blues
TTITLE20=Gladys Bentley - Wild Geese Blues
TTITLE21=Gladys Bentley - How Much Can I Stand?
TTITLE22=Gladys Bentley - Big Gorilla Man
TTITLE23=Gladys Bentley - Red Beans and Rice
EXTD=
EXTT0=
EXTT1=
EXTT2=
EXTT3=
EXTT4=
EXTT5=
EXTT6=
EXTT7=
EXTT8=
EXTT9=
EXTT10=
EXTT11=
EXTT12=
EXTT13=
EXTT14=
EXTT15=
EXTT16=
EXTT17=
EXTT18=
EXTT19=
EXTT20=
EXTT21=
EXTT22=
EXTT23=
PLAYORDER=
